STARTFONT 2.1
FONT -artwiz-nu-medium-r-normal--11-110-75-75-p-90-ISO8859-1
SIZE 11 75 75
FONTBOUNDINGBOX 6 11 0 -2
STARTPROPERTIES 26
FONTNAME_REGISTRY ""
FOUNDRY "artwiz"
FAMILY_NAME "nu"
WEIGHT_NAME "medium"
SLANT "r"
SETWIDTH_NAME "normal"
ADD_STYLE_NAME ""
PIXEL_SIZE 11
POINT_SIZE 110
RESOLUTION_X 75
RESOLUTION_Y 75
SPACING "p"
AVERAGE_WIDTH 90
CHARSET_REGISTRY "ISO8859"
CHARSET_ENCODING "1"
COPYRIGHT "artwiz, fixed by aleczapka"
FACE_NAME "nu"
WEIGHT 10
RESOLUTION 99
X_HEIGHT 6
QUAD_WIDTH 7
_XMBDFED_INFO "Edited with xmbdfed 4.5. by aLEczapKA"
DEFAULT_CHAR 52
FONT_ASCENT 9
FONT_DESCENT 2
_ORIGINAL_FONT_NAME "nu"
ENDPROPERTIES
CHARS 191
STARTCHAR char32
ENCODING 32
SWIDTH 0 0
DWIDTH 5 0
BBX 0 0 0 0
BITMAP
ENDCHAR
STARTCHAR char33
ENCODING 33
SWIDTH 0 0
DWIDTH 3 0
BBX 1 5 1 0
BITMAP
80
80
80
00
80
ENDCHAR
STARTCHAR char34
ENCODING 34
SWIDTH 0 0
DWIDTH 5 0
BBX 3 2 1 4
BITMAP
A0
A0
ENDCHAR
STARTCHAR char35
ENCODING 35
SWIDTH 0 0
DWIDTH 6 0
BBX 5 5 1 0
BITMAP
50
D8
50
D8
50
ENDCHAR
STARTCHAR char36
ENCODING 36
SWIDTH 0 0
DWIDTH 7 0
BBX 5 7 1 -1
BITMAP
20
78
A0
70
28
F0
20
ENDCHAR
STARTCHAR char37
ENCODING 37
SWIDTH 0 0
DWIDTH 7 0
BBX 5 5 1 0
BITMAP
88
10
20
40
88
ENDCHAR
STARTCHAR char38
ENCODING 38
SWIDTH 0 0
DWIDTH 4 0
BBX 3 7 1 -1
BITMAP
40
60
80
E0
80
60
40
ENDCHAR
STARTCHAR char39
ENCODING 39
SWIDTH 0 0
DWIDTH 3 0
BBX 1 2 1 4
BITMAP
80
80
ENDCHAR
STARTCHAR char40
ENCODING 40
SWIDTH 0 0
DWIDTH 4 0
BBX 2 7 1 -1
BITMAP
40
80
80
80
80
80
40
ENDCHAR
STARTCHAR char41
ENCODING 41
SWIDTH 0 0
DWIDTH 4 0
BBX 2 7 1 -1
BITMAP
80
40
40
40
40
40
80
ENDCHAR
STARTCHAR char42
ENCODING 42
SWIDTH 0 0
DWIDTH 7 0
BBX 5 5 1 0
BITMAP
50
20
F8
20
50
ENDCHAR
STARTCHAR char43
ENCODING 43
SWIDTH 0 0
DWIDTH 7 0
BBX 5 5 1 0
BITMAP
20
20
F8
20
20
ENDCHAR
STARTCHAR char44
ENCODING 44
SWIDTH 0 0
DWIDTH 3 0
BBX 2 3 0 -1
BITMAP
40
40
80
ENDCHAR
STARTCHAR char45
ENCODING 45
SWIDTH 0 0
DWIDTH 6 0
BBX 4 1 1 2
BITMAP
F0
ENDCHAR
STARTCHAR char46
ENCODING 46
SWIDTH 0 0
DWIDTH 3 0
BBX 1 2 1 0
BITMAP
80
80
ENDCHAR
STARTCHAR char47
ENCODING 47
SWIDTH 0 0
DWIDTH 5 0
BBX 3 6 1 0
BITMAP
20
20
40
40
80
80
ENDCHAR
STARTCHAR char48
ENCODING 48
SWIDTH 0 0
DWIDTH 6 0
BBX 4 5 1 0
BITMAP
60
90
90
90
60
ENDCHAR
STARTCHAR char49
ENCODING 49
SWIDTH 0 0
DWIDTH 4 0
BBX 2 5 1 0
BITMAP
C0
40
40
40
40
ENDCHAR
STARTCHAR char50
ENCODING 50
SWIDTH 0 0
DWIDTH 6 0
BBX 4 5 1 0
BITMAP
60
90
20
40
F0
ENDCHAR
STARTCHAR char51
ENCODING 51
SWIDTH 0 0
DWIDTH 6 0
BBX 4 5 1 0
BITMAP
E0
10
60
10
E0
ENDCHAR
STARTCHAR char52
ENCODING 52
SWIDTH 0 0
DWIDTH 6 0
BBX 4 5 1 0
BITMAP
30
50
F0
10
10
ENDCHAR
STARTCHAR char53
ENCODING 53
SWIDTH 0 0
DWIDTH 6 0
BBX 4 5 1 0
BITMAP
E0
80
E0
10
E0
ENDCHAR
STARTCHAR char54
ENCODING 54
SWIDTH 0 0
DWIDTH 6 0
BBX 4 5 1 0
BITMAP
60
80
E0
90
60
ENDCHAR
STARTCHAR char55
ENCODING 55
SWIDTH 0 0
DWIDTH 6 0
BBX 4 5 1 0
BITMAP
F0
10
20
20
20
ENDCHAR
STARTCHAR char56
ENCODING 56
SWIDTH 0 0
DWIDTH 6 0
BBX 4 5 1 0
BITMAP
60
90
60
90
60
ENDCHAR
STARTCHAR char57
ENCODING 57
SWIDTH 0 0
DWIDTH 6 0
BBX 4 5 1 0
BITMAP
60
90
70
10
60
ENDCHAR
STARTCHAR char58
ENCODING 58
SWIDTH 0 0
DWIDTH 3 0
BBX 1 3 1 1
BITMAP
80
00
80
ENDCHAR
STARTCHAR char59
ENCODING 59
SWIDTH 0 0
DWIDTH 3 0
BBX 2 5 0 -1
BITMAP
40
00
40
40
80
ENDCHAR
STARTCHAR char60
ENCODING 60
SWIDTH 0 0
DWIDTH 5 0
BBX 3 5 1 0
BITMAP
20
40
80
40
20
ENDCHAR
STARTCHAR char61
ENCODING 61
SWIDTH 0 0
DWIDTH 6 0
BBX 4 3 1 1
BITMAP
F0
00
F0
ENDCHAR
STARTCHAR char62
ENCODING 62
SWIDTH 0 0
DWIDTH 5 0
BBX 3 5 1 0
BITMAP
80
40
20
40
80
ENDCHAR
STARTCHAR char63
ENCODING 63
SWIDTH 0 0
DWIDTH 6 0
BBX 4 5 1 0
BITMAP
E0
10
60
00
40
ENDCHAR
STARTCHAR char64
ENCODING 64
SWIDTH 0 0
DWIDTH 6 0
BBX 4 5 1 0
BITMAP
60
90
B0
80
70
ENDCHAR
STARTCHAR char65
ENCODING 65
SWIDTH 0 0
DWIDTH 6 0
BBX 4 5 1 0
BITMAP
60
90
F0
90
90
ENDCHAR
STARTCHAR char66
ENCODING 66
SWIDTH 0 0
DWIDTH 6 0
BBX 4 5 1 0
BITMAP
E0
90
E0
90
E0
ENDCHAR
STARTCHAR char67
ENCODING 67
SWIDTH 0 0
DWIDTH 6 0
BBX 4 5 1 0
BITMAP
70
80
80
80
70
ENDCHAR
STARTCHAR char68
ENCODING 68
SWIDTH 0 0
DWIDTH 6 0
BBX 4 5 1 0
BITMAP
E0
90
90
90
E0
ENDCHAR
STARTCHAR char69
ENCODING 69
SWIDTH 0 0
DWIDTH 5 0
BBX 3 5 1 0
BITMAP
E0
80
E0
80
E0
ENDCHAR
STARTCHAR char70
ENCODING 70
SWIDTH 0 0
DWIDTH 5 0
BBX 3 5 1 0
BITMAP
E0
80
C0
80
80
ENDCHAR
STARTCHAR char71
ENCODING 71
SWIDTH 0 0
DWIDTH 6 0
BBX 4 5 1 0
BITMAP
60
80
B0
90
70
ENDCHAR
STARTCHAR char72
ENCODING 72
SWIDTH 0 0
DWIDTH 6 0
BBX 4 5 1 0
BITMAP
90
90
F0
90
90
ENDCHAR
STARTCHAR char73
ENCODING 73
SWIDTH 0 0
DWIDTH 3 0
BBX 1 5 1 0
BITMAP
80
80
80
80
80
ENDCHAR
STARTCHAR char74
ENCODING 74
SWIDTH 0 0
DWIDTH 6 0
BBX 4 5 1 0
BITMAP
10
10
10
90
60
ENDCHAR
STARTCHAR char75
ENCODING 75
SWIDTH 0 0
DWIDTH 6 0
BBX 4 5 1 0
BITMAP
90
A0
C0
A0
90
ENDCHAR
STARTCHAR char76
ENCODING 76
SWIDTH 0 0
DWIDTH 6 0
BBX 4 5 1 0
BITMAP
80
80
80
80
F0
ENDCHAR
STARTCHAR char77
ENCODING 77
SWIDTH 0 0
DWIDTH 7 0
BBX 5 5 1 0
BITMAP
88
D8
A8
88
88
ENDCHAR
STARTCHAR char78
ENCODING 78
SWIDTH 0 0
DWIDTH 6 0
BBX 4 5 1 0
BITMAP
90
D0
B0
90
90
ENDCHAR
STARTCHAR char79
ENCODING 79
SWIDTH 0 0
DWIDTH 6 0
BBX 4 5 1 0
BITMAP
60
90
90
90
60
ENDCHAR
STARTCHAR char80
ENCODING 80
SWIDTH 0 0
DWIDTH 6 0
BBX 4 5 1 0
BITMAP
E0
90
E0
80
80
ENDCHAR
STARTCHAR char81
ENCODING 81
SWIDTH 0 0
DWIDTH 6 0
BBX 4 6 1 -1
BITMAP
60
90
90
90
60
10
ENDCHAR
STARTCHAR char82
ENCODING 82
SWIDTH 0 0
DWIDTH 6 0
BBX 4 5 1 0
BITMAP
E0
90
E0
90
90
ENDCHAR
STARTCHAR char83
ENCODING 83
SWIDTH 0 0
DWIDTH 6 0
BBX 4 5 1 0
BITMAP
70
80
60
10
E0
ENDCHAR
STARTCHAR char84
ENCODING 84
SWIDTH 0 0
DWIDTH 5 0
BBX 3 5 1 0
BITMAP
E0
40
40
40
40
ENDCHAR
STARTCHAR char85
ENCODING 85
SWIDTH 0 0
DWIDTH 6 0
BBX 4 5 1 0
BITMAP
90
90
90
90
60
ENDCHAR
STARTCHAR char86
ENCODING 86
SWIDTH 0 0
DWIDTH 6 0
BBX 4 5 1 0
BITMAP
90
90
90
60
60
ENDCHAR
STARTCHAR char87
ENCODING 87
SWIDTH 0 0
DWIDTH 7 0
BBX 5 5 1 0
BITMAP
88
88
A8
D8
88
ENDCHAR
STARTCHAR char88
ENCODING 88
SWIDTH 0 0
DWIDTH 7 0
BBX 5 5 1 0
BITMAP
88
50
20
50
88
ENDCHAR
STARTCHAR char89
ENCODING 89
SWIDTH 0 0
DWIDTH 7 0
BBX 5 5 1 0
BITMAP
88
50
20
20
20
ENDCHAR
STARTCHAR char90
ENCODING 90
SWIDTH 0 0
DWIDTH 7 0
BBX 5 5 1 0
BITMAP
F8
10
20
40
F8
ENDCHAR
STARTCHAR char91
ENCODING 91
SWIDTH 0 0
DWIDTH 5 0
BBX 3 7 2 -1
BITMAP
E0
80
80
80
80
80
E0
ENDCHAR
STARTCHAR char92
ENCODING 92
SWIDTH 0 0
DWIDTH 6 0
BBX 5 8 0 -1
BITMAP
40
40
20
20
10
10
08
08
ENDCHAR
STARTCHAR char93
ENCODING 93
SWIDTH 0 0
DWIDTH 4 0
BBX 3 7 1 -1
BITMAP
E0
20
20
20
20
20
E0
ENDCHAR
STARTCHAR char94
ENCODING 94
SWIDTH 0 0
DWIDTH 7 0
BBX 5 3 1 5
BITMAP
20
50
88
ENDCHAR
STARTCHAR char95
ENCODING 95
SWIDTH 0 0
DWIDTH 6 0
BBX 4 1 1 -1
BITMAP
F0
ENDCHAR
STARTCHAR char96
ENCODING 96
SWIDTH 0 0
DWIDTH 3 0
BBX 1 2 1 4
BITMAP
80
80
ENDCHAR
STARTCHAR char97
ENCODING 97
SWIDTH 0 0
DWIDTH 6 0
BBX 4 5 1 0
BITMAP
60
90
F0
90
90
ENDCHAR
STARTCHAR char98
ENCODING 98
SWIDTH 0 0
DWIDTH 6 0
BBX 4 5 1 0
BITMAP
E0
90
E0
90
E0
ENDCHAR
STARTCHAR char99
ENCODING 99
SWIDTH 0 0
DWIDTH 6 0
BBX 4 5 1 0
BITMAP
70
80
80
80
70
ENDCHAR
STARTCHAR char100
ENCODING 100
SWIDTH 0 0
DWIDTH 6 0
BBX 4 5 1 0
BITMAP
E0
90
90
90
E0
ENDCHAR
STARTCHAR char101
ENCODING 101
SWIDTH 0 0
DWIDTH 5 0
BBX 3 5 1 0
BITMAP
E0
80
E0
80
E0
ENDCHAR
STARTCHAR char102
ENCODING 102
SWIDTH 0 0
DWIDTH 5 0
BBX 3 5 1 0
BITMAP
E0
80
C0
80
80
ENDCHAR
STARTCHAR char103
ENCODING 103
SWIDTH 0 0
DWIDTH 6 0
BBX 4 5 1 0
BITMAP
60
80
B0
90
70
ENDCHAR
STARTCHAR char104
ENCODING 104
SWIDTH 0 0
DWIDTH 6 0
BBX 4 5 1 0
BITMAP
90
90
F0
90
90
ENDCHAR
STARTCHAR char105
ENCODING 105
SWIDTH 0 0
DWIDTH 3 0
BBX 1 5 1 0
BITMAP
80
80
80
80
80
ENDCHAR
STARTCHAR char106
ENCODING 106
SWIDTH 0 0
DWIDTH 6 0
BBX 4 5 1 0
BITMAP
10
10
10
90
60
ENDCHAR
STARTCHAR char107
ENCODING 107
SWIDTH 0 0
DWIDTH 6 0
BBX 4 5 1 0
BITMAP
90
A0
C0
A0
90
ENDCHAR
STARTCHAR char108
ENCODING 108
SWIDTH 0 0
DWIDTH 6 0
BBX 4 5 1 0
BITMAP
80
80
80
80
F0
ENDCHAR
STARTCHAR char109
ENCODING 109
SWIDTH 0 0
DWIDTH 7 0
BBX 5 5 1 0
BITMAP
88
D8
A8
88
88
ENDCHAR
STARTCHAR char110
ENCODING 110
SWIDTH 0 0
DWIDTH 6 0
BBX 4 5 1 0
BITMAP
90
D0
B0
90
90
ENDCHAR
STARTCHAR char111
ENCODING 111
SWIDTH 0 0
DWIDTH 6 0
BBX 4 5 1 0
BITMAP
60
90
90
90
60
ENDCHAR
STARTCHAR char112
ENCODING 112
SWIDTH 0 0
DWIDTH 6 0
BBX 4 5 1 0
BITMAP
E0
90
E0
80
80
ENDCHAR
STARTCHAR char113
ENCODING 113
SWIDTH 0 0
DWIDTH 6 0
BBX 4 6 1 -1
BITMAP
60
90
90
90
60
10
ENDCHAR
STARTCHAR char114
ENCODING 114
SWIDTH 0 0
DWIDTH 6 0
BBX 4 5 1 0
BITMAP
E0
90
E0
90
90
ENDCHAR
STARTCHAR char115
ENCODING 115
SWIDTH 0 0
DWIDTH 6 0
BBX 4 5 1 0
BITMAP
70
80
60
10
E0
ENDCHAR
STARTCHAR char116
ENCODING 116
SWIDTH 0 0
DWIDTH 5 0
BBX 3 5 1 0
BITMAP
E0
40
40
40
40
ENDCHAR
STARTCHAR char117
ENCODING 117
SWIDTH 0 0
DWIDTH 6 0
BBX 4 5 1 0
BITMAP
90
90
90
90
60
ENDCHAR
STARTCHAR char118
ENCODING 118
SWIDTH 0 0
DWIDTH 6 0
BBX 4 5 1 0
BITMAP
90
90
90
60
60
ENDCHAR
STARTCHAR char119
ENCODING 119
SWIDTH 0 0
DWIDTH 7 0
BBX 5 5 1 0
BITMAP
88
88
A8
D8
88
ENDCHAR
STARTCHAR char120
ENCODING 120
SWIDTH 0 0
DWIDTH 7 0
BBX 5 5 1 0
BITMAP
88
50
20
50
88
ENDCHAR
STARTCHAR char121
ENCODING 121
SWIDTH 0 0
DWIDTH 7 0
BBX 5 5 1 0
BITMAP
88
50
20
20
20
ENDCHAR
STARTCHAR char122
ENCODING 122
SWIDTH 0 0
DWIDTH 7 0
BBX 5 5 1 0
BITMAP
F8
10
20
40
F8
ENDCHAR
STARTCHAR char123
ENCODING 123
SWIDTH 0 0
DWIDTH 5 0
BBX 3 7 1 -1
BITMAP
20
40
20
C0
20
40
20
ENDCHAR
STARTCHAR char124
ENCODING 124
SWIDTH 0 0
DWIDTH 6 0
BBX 1 7 1 -1
BITMAP
80
80
80
80
80
80
80
ENDCHAR
STARTCHAR char125
ENCODING 125
SWIDTH 0 0
DWIDTH 5 0
BBX 3 7 2 -1
BITMAP
80
40
80
60
80
40
80
ENDCHAR
STARTCHAR char126
ENCODING 126
SWIDTH 0 0
DWIDTH 6 0
BBX 4 2 1 3
BITMAP
50
A0
ENDCHAR
STARTCHAR char160
ENCODING 160
SWIDTH 0 0
DWIDTH 6 0
BBX 0 0 0 0
BITMAP
ENDCHAR
STARTCHAR char161
ENCODING 161
SWIDTH 0 0
DWIDTH 6 0
BBX 1 7 1 -1
BITMAP
80
80
00
80
80
80
80
ENDCHAR
STARTCHAR char162
ENCODING 162
SWIDTH 0 0
DWIDTH 6 0
BBX 5 7 1 0
BITMAP
20
78
A0
A0
A0
78
20
ENDCHAR
STARTCHAR char163
ENCODING 163
SWIDTH 0 0
DWIDTH 6 0
BBX 5 7 1 0
BITMAP
38
40
40
F0
40
40
F8
ENDCHAR
STARTCHAR char164
ENCODING 164
SWIDTH 0 0
DWIDTH 6 0
BBX 6 7 0 0
BITMAP
84
78
48
48
48
78
84
ENDCHAR
STARTCHAR char165
ENCODING 165
SWIDTH 0 0
DWIDTH 6 0
BBX 5 7 1 0
BITMAP
88
88
50
20
F8
20
20
ENDCHAR
STARTCHAR char166
ENCODING 166
SWIDTH 0 0
DWIDTH 6 0
BBX 1 9 1 -1
BITMAP
80
80
80
80
00
80
80
80
80
ENDCHAR
STARTCHAR char167
ENCODING 167
SWIDTH 0 0
DWIDTH 6 0
BBX 5 8 1 -1
BITMAP
78
C0
60
90
48
30
18
F0
ENDCHAR
STARTCHAR char168
ENCODING 168
SWIDTH 0 0
DWIDTH 6 0
BBX 4 1 1 7
BITMAP
90
ENDCHAR
STARTCHAR char169
ENCODING 169
SWIDTH 0 0
DWIDTH 6 0
BBX 5 7 1 0
BITMAP
38
40
B8
A0
B8
40
38
ENDCHAR
STARTCHAR char170
ENCODING 170
SWIDTH 0 0
DWIDTH 6 0
BBX 4 5 1 2
BITMAP
C0
20
60
A0
50
ENDCHAR
STARTCHAR char171
ENCODING 171
SWIDTH 0 0
DWIDTH 6 0
BBX 5 3 0 2
BITMAP
48
90
48
ENDCHAR
STARTCHAR char172
ENCODING 172
SWIDTH 0 0
DWIDTH 6 0
BBX 5 3 1 1
BITMAP
F8
08
08
ENDCHAR
STARTCHAR char173
ENCODING 173
SWIDTH 0 0
DWIDTH 6 0
BBX 2 1 1 3
BITMAP
C0
ENDCHAR
STARTCHAR char174
ENCODING 174
SWIDTH 0 0
DWIDTH 6 0
BBX 6 7 0 0
BITMAP
38
44
B8
B0
A8
44
38
ENDCHAR
STARTCHAR char175
ENCODING 175
SWIDTH 0 0
DWIDTH 6 0
BBX 3 1 2 7
BITMAP
E0
ENDCHAR
STARTCHAR char176
ENCODING 176
SWIDTH 0 0
DWIDTH 6 0
BBX 3 3 0 4
BITMAP
40
A0
40
ENDCHAR
STARTCHAR char177
ENCODING 177
SWIDTH 0 0
DWIDTH 6 0
BBX 5 5 1 1
BITMAP
20
F8
20
00
F8
ENDCHAR
STARTCHAR char178
ENCODING 178
SWIDTH 0 0
DWIDTH 6 0
BBX 4 5 1 2
BITMAP
E0
10
60
80
F0
ENDCHAR
STARTCHAR char179
ENCODING 179
SWIDTH 0 0
DWIDTH 6 0
BBX 3 5 1 2
BITMAP
C0
20
C0
20
C0
ENDCHAR
STARTCHAR char180
ENCODING 180
SWIDTH 0 0
DWIDTH 6 0
BBX 2 2 2 7
BITMAP
40
80
ENDCHAR
STARTCHAR char181
ENCODING 181
SWIDTH 0 0
DWIDTH 6 0
BBX 4 8 1 -2
BITMAP
90
90
90
90
B0
D0
80
80
ENDCHAR
STARTCHAR char182
ENCODING 182
SWIDTH 0 0
DWIDTH 6 0
BBX 5 8 0 -1
BITMAP
78
E8
E8
68
28
28
28
28
ENDCHAR
STARTCHAR char183
ENCODING 183
SWIDTH 0 0
DWIDTH 6 0
BBX 2 2 3 2
BITMAP
C0
C0
ENDCHAR
STARTCHAR char184
ENCODING 184
SWIDTH 0 0
DWIDTH 6 0
BBX 3 2 1 -2
BITMAP
20
C0
ENDCHAR
STARTCHAR char185
ENCODING 185
SWIDTH 0 0
DWIDTH 6 0
BBX 3 5 0 2
BITMAP
20
E0
20
20
20
ENDCHAR
STARTCHAR char186
ENCODING 186
SWIDTH 0 0
DWIDTH 6 0
BBX 4 5 1 2
BITMAP
60
90
90
90
60
ENDCHAR
STARTCHAR char187
ENCODING 187
SWIDTH 0 0
DWIDTH 6 0
BBX 5 3 1 2
BITMAP
90
48
90
ENDCHAR
STARTCHAR char188
ENCODING 188
SWIDTH 0 0
DWIDTH 6 0
BBX 6 7 0 0
BITMAP
40
C4
48
50
14
24
C0
ENDCHAR
STARTCHAR char189
ENCODING 189
SWIDTH 0 0
DWIDTH 6 0
BBX 6 8 0 -1
BITMAP
C0
44
48
48
10
A0
00
80
ENDCHAR
STARTCHAR char190
ENCODING 190
SWIDTH 0 0
DWIDTH 6 0
BBX 6 7 0 0
BITMAP
E0
44
28
C8
14
24
C0
ENDCHAR
STARTCHAR char191
ENCODING 191
SWIDTH 0 0
DWIDTH 6 0
BBX 4 7 0 -1
BITMAP
20
20
00
60
80
80
70
ENDCHAR
STARTCHAR char192
ENCODING 192
SWIDTH 0 0
DWIDTH 6 0
BBX 5 9 1 0
BITMAP
40
20
00
20
50
50
F8
88
88
ENDCHAR
STARTCHAR char193
ENCODING 193
SWIDTH 0 0
DWIDTH 6 0
BBX 5 9 1 0
BITMAP
10
20
00
20
50
50
F8
88
88
ENDCHAR
STARTCHAR char194
ENCODING 194
SWIDTH 0 0
DWIDTH 6 0
BBX 5 9 1 0
BITMAP
20
50
00
20
50
50
F8
88
88
ENDCHAR
STARTCHAR char195
ENCODING 195
SWIDTH 0 0
DWIDTH 6 0
BBX 5 9 1 0
BITMAP
68
B0
00
20
50
50
F8
88
88
ENDCHAR
STARTCHAR char196
ENCODING 196
SWIDTH 0 0
DWIDTH 6 0
BBX 5 8 1 0
BITMAP
50
00
20
50
50
F8
88
88
ENDCHAR
STARTCHAR char197
ENCODING 197
SWIDTH 0 0
DWIDTH 6 0
BBX 5 9 1 0
BITMAP
20
50
20
20
50
50
F8
88
88
ENDCHAR
STARTCHAR char198
ENCODING 198
SWIDTH 0 0
DWIDTH 6 0
BBX 5 7 1 0
BITMAP
38
30
50
58
F0
90
98
ENDCHAR
STARTCHAR char199
ENCODING 199
SWIDTH 0 0
DWIDTH 6 0
BBX 5 9 1 -2
BITMAP
38
40
80
80
80
40
38
10
60
ENDCHAR
STARTCHAR char200
ENCODING 200
SWIDTH 0 0
DWIDTH 6 0
BBX 4 9 1 0
BITMAP
40
20
00
F0
80
E0
80
80
F0
ENDCHAR
STARTCHAR char201
ENCODING 201
SWIDTH 0 0
DWIDTH 6 0
BBX 4 9 1 0
BITMAP
20
40
00
F0
80
E0
80
80
F0
ENDCHAR
STARTCHAR char202
ENCODING 202
SWIDTH 0 0
DWIDTH 6 0
BBX 4 9 1 0
BITMAP
40
A0
00
F0
80
E0
80
80
F0
ENDCHAR
STARTCHAR char203
ENCODING 203
SWIDTH 0 0
DWIDTH 6 0
BBX 4 8 1 0
BITMAP
90
00
F0
80
E0
80
80
F0
ENDCHAR
STARTCHAR char204
ENCODING 204
SWIDTH 0 0
DWIDTH 6 0
BBX 2 9 0 0
BITMAP
80
40
00
40
40
40
40
40
40
ENDCHAR
STARTCHAR char205
ENCODING 205
SWIDTH 0 0
DWIDTH 6 0
BBX 2 9 1 0
BITMAP
40
80
00
80
80
80
80
80
80
ENDCHAR
STARTCHAR char206
ENCODING 206
SWIDTH 0 0
DWIDTH 6 0
BBX 3 9 0 0
BITMAP
40
A0
00
40
40
40
40
40
40
ENDCHAR
STARTCHAR char207
ENCODING 207
SWIDTH 0 0
DWIDTH 6 0
BBX 3 8 0 0
BITMAP
A0
00
40
40
40
40
40
40
ENDCHAR
STARTCHAR char208
ENCODING 208
SWIDTH 0 0
DWIDTH 6 0
BBX 6 7 0 0
BITMAP
78
44
40
F0
40
44
78
ENDCHAR
STARTCHAR char209
ENCODING 209
SWIDTH 0 0
DWIDTH 6 0
BBX 5 9 1 0
BITMAP
30
58
00
80
C0
A0
90
88
80
ENDCHAR
STARTCHAR char210
ENCODING 210
SWIDTH 0 0
DWIDTH 6 0
BBX 5 9 1 0
BITMAP
20
10
00
30
48
80
80
48
30
ENDCHAR
STARTCHAR char211
ENCODING 211
SWIDTH 0 0
DWIDTH 6 0
BBX 5 9 1 0
BITMAP
10
20
00
30
48
80
80
48
30
ENDCHAR
STARTCHAR char212
ENCODING 212
SWIDTH 0 0
DWIDTH 6 0
BBX 5 9 1 0
BITMAP
20
50
00
30
48
80
80
48
30
ENDCHAR
STARTCHAR char213
ENCODING 213
SWIDTH 0 0
DWIDTH 6 0
BBX 5 9 1 0
BITMAP
30
58
00
30
48
80
80
48
30
ENDCHAR
STARTCHAR char214
ENCODING 214
SWIDTH 0 0
DWIDTH 6 0
BBX 5 8 1 0
BITMAP
48
00
30
48
80
80
48
30
ENDCHAR
STARTCHAR char215
ENCODING 215
SWIDTH 0 0
DWIDTH 6 0
BBX 5 5 1 1
BITMAP
88
50
20
50
88
ENDCHAR
STARTCHAR char216
ENCODING 216
SWIDTH 0 0
DWIDTH 6 0
BBX 5 7 1 0
BITMAP
30
48
90
90
A0
48
B0
ENDCHAR
STARTCHAR char217
ENCODING 217
SWIDTH 0 0
DWIDTH 6 0
BBX 5 9 1 0
BITMAP
20
10
00
88
88
88
88
88
70
ENDCHAR
STARTCHAR char218
ENCODING 218
SWIDTH 0 0
DWIDTH 6 0
BBX 5 9 1 0
BITMAP
10
20
00
88
88
88
88
88
70
ENDCHAR
STARTCHAR char219
ENCODING 219
SWIDTH 0 0
DWIDTH 6 0
BBX 5 9 1 0
BITMAP
20
50
00
88
88
88
88
88
70
ENDCHAR
STARTCHAR char220
ENCODING 220
SWIDTH 0 0
DWIDTH 6 0
BBX 5 8 1 0
BITMAP
90
00
88
88
88
88
88
70
ENDCHAR
STARTCHAR char221
ENCODING 221
SWIDTH 0 0
DWIDTH 6 0
BBX 5 9 1 0
BITMAP
20
50
00
88
88
50
20
20
20
ENDCHAR
STARTCHAR char222
ENCODING 222
SWIDTH 0 0
DWIDTH 6 0
BBX 4 7 1 0
BITMAP
80
80
E0
90
E0
80
80
ENDCHAR
STARTCHAR char223
ENCODING 223
SWIDTH 0 0
DWIDTH 6 0
BBX 5 8 1 0
BITMAP
60
90
90
A0
90
88
88
90
ENDCHAR
STARTCHAR char224
ENCODING 224
SWIDTH 0 0
DWIDTH 6 0
BBX 5 9 1 0
BITMAP
40
20
00
60
10
70
90
90
68
ENDCHAR
STARTCHAR char225
ENCODING 225
SWIDTH 0 0
DWIDTH 6 0
BBX 5 9 1 0
BITMAP
10
20
00
60
10
70
90
90
68
ENDCHAR
STARTCHAR char226
ENCODING 226
SWIDTH 0 0
DWIDTH 6 0
BBX 5 9 1 0
BITMAP
20
50
00
60
10
70
90
90
68
ENDCHAR
STARTCHAR char227
ENCODING 227
SWIDTH 0 0
DWIDTH 6 0
BBX 6 9 0 0
BITMAP
68
B0
00
30
08
38
48
48
34
ENDCHAR
STARTCHAR char228
ENCODING 228
SWIDTH 0 0
DWIDTH 6 0
BBX 5 8 1 0
BITMAP
90
00
60
10
70
90
90
68
ENDCHAR
STARTCHAR char229
ENCODING 229
SWIDTH 0 0
DWIDTH 6 0
BBX 5 9 1 0
BITMAP
20
50
20
60
10
70
90
90
68
ENDCHAR
STARTCHAR char230
ENCODING 230
SWIDTH 0 0
DWIDTH 6 0
BBX 5 6 1 0
BITMAP
68
10
78
90
90
68
ENDCHAR
STARTCHAR char231
ENCODING 231
SWIDTH 0 0
DWIDTH 6 0
BBX 4 8 1 -2
BITMAP
70
80
80
80
80
70
20
C0
ENDCHAR
STARTCHAR char232
ENCODING 232
SWIDTH 0 0
DWIDTH 6 0
BBX 4 9 1 0
BITMAP
40
20
00
60
90
F0
80
80
70
ENDCHAR
STARTCHAR char233
ENCODING 233
SWIDTH 0 0
DWIDTH 6 0
BBX 4 9 1 0
BITMAP
20
40
00
60
90
F0
80
80
70
ENDCHAR
STARTCHAR char234
ENCODING 234
SWIDTH 0 0
DWIDTH 6 0
BBX 4 9 1 0
BITMAP
20
50
00
60
90
F0
80
80
70
ENDCHAR
STARTCHAR char235
ENCODING 235
SWIDTH 0 0
DWIDTH 6 0
BBX 4 8 1 0
BITMAP
90
00
60
90
F0
80
80
70
ENDCHAR
STARTCHAR char236
ENCODING 236
SWIDTH 0 0
DWIDTH 6 0
BBX 2 9 0 0
BITMAP
80
40
00
40
40
40
40
40
40
ENDCHAR
STARTCHAR char237
ENCODING 237
SWIDTH 0 0
DWIDTH 6 0
BBX 2 9 1 0
BITMAP
40
80
00
80
80
80
80
80
80
ENDCHAR
STARTCHAR char238
ENCODING 238
SWIDTH 0 0
DWIDTH 6 0
BBX 3 9 0 0
BITMAP
40
A0
00
40
40
40
40
40
40
ENDCHAR
STARTCHAR char239
ENCODING 239
SWIDTH 0 0
DWIDTH 6 0
BBX 3 8 0 0
BITMAP
A0
00
40
40
40
40
40
40
ENDCHAR
STARTCHAR char240
ENCODING 240
SWIDTH 0 0
DWIDTH 6 0
BBX 5 8 1 0
BITMAP
20
78
10
70
90
90
90
60
ENDCHAR
STARTCHAR char241
ENCODING 241
SWIDTH 0 0
DWIDTH 6 0
BBX 5 9 1 0
BITMAP
68
B0
00
A0
D0
90
90
90
90
ENDCHAR
STARTCHAR char242
ENCODING 242
SWIDTH 0 0
DWIDTH 6 0
BBX 4 9 1 0
BITMAP
40
20
00
60
90
90
90
90
60
ENDCHAR
STARTCHAR char243
ENCODING 243
SWIDTH 0 0
DWIDTH 6 0
BBX 4 9 1 0
BITMAP
20
40
00
60
90
90
90
90
60
ENDCHAR
STARTCHAR char244
ENCODING 244
SWIDTH 0 0
DWIDTH 6 0
BBX 4 9 1 0
BITMAP
40
A0
00
60
90
90
90
90
60
ENDCHAR
STARTCHAR char245
ENCODING 245
SWIDTH 0 0
DWIDTH 6 0
BBX 5 9 0 0
BITMAP
68
B0
00
30
48
48
48
48
30
ENDCHAR
STARTCHAR char246
ENCODING 246
SWIDTH 0 0
DWIDTH 6 0
BBX 4 8 1 0
BITMAP
90
00
60
90
90
90
90
60
ENDCHAR
STARTCHAR char247
ENCODING 247
SWIDTH 0 0
DWIDTH 6 0
BBX 5 5 1 1
BITMAP
20
00
F8
00
20
ENDCHAR
STARTCHAR char248
ENCODING 248
SWIDTH 0 0
DWIDTH 6 0
BBX 6 6 0 0
BITMAP
34
48
58
68
48
B0
ENDCHAR
STARTCHAR char249
ENCODING 249
SWIDTH 0 0
DWIDTH 6 0
BBX 4 9 1 0
BITMAP
40
20
00
90
90
90
90
B0
50
ENDCHAR
STARTCHAR char250
ENCODING 250
SWIDTH 0 0
DWIDTH 6 0
BBX 4 9 1 0
BITMAP
20
40
00
90
90
90
90
B0
50
ENDCHAR
STARTCHAR char251
ENCODING 251
SWIDTH 0 0
DWIDTH 6 0
BBX 4 9 1 0
BITMAP
20
50
00
90
90
90
90
B0
50
ENDCHAR
STARTCHAR char252
ENCODING 252
SWIDTH 0 0
DWIDTH 6 0
BBX 4 8 1 0
BITMAP
90
00
90
90
90
90
B0
50
ENDCHAR
STARTCHAR char253
ENCODING 253
SWIDTH 0 0
DWIDTH 6 0
BBX 6 11 0 -2
BITMAP
10
20
00
48
48
48
48
30
30
20
60
ENDCHAR
STARTCHAR char254
ENCODING 254
SWIDTH 0 0
DWIDTH 6 0
BBX 4 9 1 -2
BITMAP
80
A0
D0
90
90
90
E0
80
80
ENDCHAR
STARTCHAR char255
ENCODING 255
SWIDTH 0 0
DWIDTH 6 0
BBX 4 10 1 -2
BITMAP
90
00
90
90
90
90
60
60
40
C0
ENDCHAR
ENDFONT
